HIERARCHY
ROOT Hips
{
	OFFSET 46.467499 6.921126 84.177101
	CHANNELS 6 Xposition Yposition Zposition Xrotation Yrotation Zrotation
	JOINT spine
	{
		OFFSET 0.000000 -0.359108 6.244789
		CHANNELS 3 Xrotation Yrotation Zrotation
		JOINT spine1
		{
			OFFSET 0.000000 -0.000001 9.069412
			CHANNELS 3 Xrotation Yrotation Zrotation
			JOINT spine2
			{
				OFFSET 0.000000 -0.000001 8.690140
				CHANNELS 3 Xrotation Yrotation Zrotation
				JOINT Neck
				{
					OFFSET 0.000000 -1.063724 22.311203
					CHANNELS 3 Xrotation Yrotation Zrotation
					JOINT Head
					{
						OFFSET 0.000000 -0.000001 6.740814
						CHANNELS 3 Xrotation Yrotation Zrotation
						End Site
						{
							OFFSET 0.000000 5.380968 16.316498
						}
					}
				}
				JOINT RightShoulder
				{
					OFFSET -3.659161 0.509512 9.384682
					CHANNELS 3 Xrotation Yrotation Zrotation
					JOINT RightArm
					{
						OFFSET 0.000000 -0.000002 12.308907
						CHANNELS 3 Xrotation Yrotation Zrotation
						JOINT RightArmRoll
						{
							OFFSET 0.000000 -0.000001 6.213745
							CHANNELS 3 Xrotation Yrotation Zrotation
							JOINT RightForeArm
							{
								OFFSET 0.000000 -0.000003 18.098495
								CHANNELS 3 Xrotation Yrotation Zrotation
								JOINT RightForeArmRoll
								{
									OFFSET 0.000000 -0.000001 6.972794
									CHANNELS 3 Xrotation Yrotation Zrotation
									JOINT RightHand
									{
										OFFSET 0.000000 -0.000002 13.992905
										CHANNELS 3 Xrotation Yrotation Zrotation
										End Site
										{
											OFFSET 0.000000 0.000000 0.100006
										}
									}
								}
							}
						}
					}
				}
				JOINT LeftShoulder
				{
					OFFSET 3.659161 0.509512 9.384682
					CHANNELS 3 Xrotation Yrotation Zrotation
					JOINT LeftArm
					{
						OFFSET 0.000000 -0.000002 12.308907
						CHANNELS 3 Xrotation Yrotation Zrotation
						JOINT LeftArmRoll
						{
							OFFSET 0.000000 -0.000001 6.213745
							CHANNELS 3 Xrotation Yrotation Zrotation
							JOINT LeftForeArm
							{
								OFFSET 0.000000 -0.000003 18.098495
								CHANNELS 3 Xrotation Yrotation Zrotation
								JOINT LeftForeArmRoll
								{
									OFFSET 0.000000 -0.000001 6.972794
									CHANNELS 3 Xrotation Yrotation Zrotation
									JOINT LeftHand
									{
										OFFSET 0.000000 -0.000002 13.992905
										CHANNELS 3 Xrotation Yrotation Zrotation
										End Site
										{
											OFFSET 0.000000 0.000000 0.100006
										}
									}
								}
							}
						}
					}
				}
			}
		}
	}
	JOINT RightUpLeg
	{
		OFFSET -5.535149 0.851455 -1.014999
		CHANNELS 3 Xrotation Yrotation Zrotation
		JOINT RightUpLegRoll
		{
			OFFSET 0.000000 -0.000003 16.407501
			CHANNELS 3 Xrotation Yrotation Zrotation
			JOINT RightLeg
			{
				OFFSET 0.000000 0.000003 -20.318100
				CHANNELS 3 Xrotation Yrotation Zrotation
				JOINT RightLegRoll
				{
					OFFSET 0.000000 -0.000003 20.384598
					CHANNELS 3 Xrotation Yrotation Zrotation
					JOINT RightFoot
					{
						OFFSET 0.000000 -0.000003 16.966805
						CHANNELS 3 Xrotation Yrotation Zrotation
						JOINT RightToeBase
						{
							OFFSET 0.000000 -0.000002 14.183395
							CHANNELS 3 Xrotation Yrotation Zrotation
							End Site
							{
								OFFSET 0.006012 0.791745 6.868896
							}
						}
					}
				}
			}
		}
	}
	JOINT LeftUpLeg
	{
		OFFSET 5.535149 0.851455 -1.014999
		CHANNELS 3 Xrotation Yrotation Zrotation
		JOINT LeftUpLegRoll
		{
			OFFSET 0.000000 -0.000003 16.407600
			CHANNELS 3 Xrotation Yrotation Zrotation
			JOINT LeftLeg
			{
				OFFSET 0.000000 -0.000003 20.318100
				CHANNELS 3 Xrotation Yrotation Zrotation
				JOINT LeftLegRoll
				{
					OFFSET 0.000000 -0.000003 20.573105
					CHANNELS 3 Xrotation Yrotation Zrotation
					JOINT LeftFoot
					{
						OFFSET 0.000000 -0.000003 16.778305
						CHANNELS 3 Xrotation Yrotation Zrotation
						JOINT LeftToeBase
						{
							OFFSET 0.000000 -0.000002 14.183395
							CHANNELS 3 Xrotation Yrotation Zrotation
							End Site
							{
								OFFSET -0.026943 0.791746 6.868896
							}
						}
					}
				}
			}
		}
	}
}
MOTION
Frames: 9
Frame Time: 0.041667
43.049500 14.900284 83.712891 1.666041 -0.280419 0.473404 -1.218023 -0.155187 -0.029207 1.571972 -0.304923 -0.050473 3.217056 -0.305639 -0.046771 5.268684 1.339270 -0.247846 1.898067 0.536250 -0.534827 -7.149908 -64.609266 -8.819984 -25.443078 -113.569845 -17.987416 0.000001 -0.000002 0.000001 15.298273 -11.351600 0.926723 -0.000006 -0.000004 -3.000001 -5.000190 -7.998715 0.000154 -14.433134 59.694781 17.049438 -14.248312 118.050435 0.001200 0.000000 0.000013 -0.000001 19.725694 3.358699 -0.020440 -0.000001 -0.000007 2.999999 -5.000286 7.999680 -0.000059 -9.895568 179.808883 -0.800880 -179.999991 0.000005 -1.043006 163.331447 -1.607523 -1.127239 -0.000005 0.000004 0.466442 73.034127 7.186039 0.975251 25.460053 -7.350107 0.000393 -2.962818 -179.584566 -0.380490 -0.000005 -0.000004 -1.100380 -13.127609 1.488534 0.971472 0.000002 -0.000003 -0.385729 76.048522 -6.939415 -1.374296 25.795014 7.354797 -0.044031 
43.050800 14.891787 83.672798 1.679100 -0.276911 0.481667 -1.218274 -0.155680 -0.028877 1.570373 -0.306300 -0.050601 3.215457 -0.307008 -0.046885 5.246048 1.320498 -0.247606 1.904478 0.543237 -0.532461 -7.159146 -64.616854 -8.831085 -25.498083 -113.584830 -18.059329 0.000001 -0.000002 0.000002 15.313059 -11.358556 0.929115 -0.000004 -0.000005 -3.000001 -5.000192 -7.998714 0.000155 -14.440519 59.680028 17.057742 -14.287679 118.068849 0.072315 0.000000 0.000013 0.000000 19.770514 3.374516 -0.023676 -0.000002 -0.000007 3.000001 -5.000282 7.999680 -0.000058 -9.893544 179.799034 -0.818897 -179.999991 0.000005 -1.043006 163.308348 -1.581472 -1.128141 -0.000006 0.000004 0.466442 73.069842 7.177833 0.994833 25.460054 -7.350107 0.000394 -2.996348 -179.585576 -0.376991 -0.000005 -0.000004 -1.100380 -13.191105 1.484390 0.974535 0.000002 -0.000003 -0.388563 76.078964 -6.938674 -1.376631 25.807639 7.354790 -0.045735 
43.042999 14.877686 83.684891 1.692077 -0.273275 0.489951 -1.218482 -0.156198 -0.028538 1.568763 -0.307741 -0.050771 3.213846 -0.308441 -0.047043 5.223193 1.301754 -0.247326 1.911174 0.550328 -0.530060 -7.169274 -64.623794 -8.843173 -25.552767 -113.600874 -18.131208 0.000001 -0.000002 0.000001 15.327858 -11.365800 0.931602 -0.000004 -0.000004 -3.000001 -5.000190 -7.998714 0.000154 -14.447979 59.665357 17.066143 -14.327240 118.086266 0.143813 0.000000 0.000013 -0.000000 19.816243 3.390509 -0.026987 -0.000002 -0.000007 3.000000 -5.000284 7.999679 -0.000060 -9.890519 179.788201 -0.837171 -179.999991 0.000005 -1.041995 163.285876 -1.554464 -1.128716 -0.000005 0.000004 0.466442 73.105782 7.169375 1.015166 25.460054 -7.350107 0.000394 -3.028766 -179.587585 -0.373430 -0.000005 -0.000004 -1.100380 -13.253402 1.480205 0.977588 0.000002 -0.000003 -0.391409 76.109447 -6.937984 -1.378972 25.819860 7.354800 -0.047413 
43.044300 14.875783 83.673996 1.704999 -0.269549 0.498248 -1.218666 -0.156732 -0.028191 1.567123 -0.309225 -0.050973 3.212208 -0.309918 -0.047230 5.200187 1.283049 -0.247023 1.918079 0.557492 -0.527636 -7.180047 -64.630405 -8.855965 -25.607901 -113.617000 -18.203817 0.000001 -0.000002 0.000001 15.342456 -11.373055 0.934052 -0.000003 -0.000005 -3.000001 -5.000191 -7.998713 0.000155 -14.455505 59.650801 17.074592 -14.366593 118.103670 0.215207 0.000000 0.000013 -0.000002 19.862581 3.406610 -0.030352 0.000000 -0.000007 3.000001 -5.000284 7.999679 -0.000060 -9.886799 179.778352 -0.855918 -179.999991 0.000005 -1.041995 163.263870 -1.527465 -1.130254 -0.000006 0.000004 0.466442 73.141887 7.160789 1.035977 25.460051 -7.350107 0.000393 -3.060388 -179.589593 -0.369859 -0.000005 -0.000004 -1.100380 -13.314799 1.475997 0.980633 0.000002 -0.000003 -0.394265 76.139971 -6.937339 -1.381316 25.831789 7.354799 -0.049039 
43.045502 14.867184 83.670197 1.717898 -0.265768 0.506554 -1.218823 -0.157275 -0.027841 1.565493 -0.310734 -0.051192 3.210578 -0.311419 -0.047436 5.177093 1.264353 -0.246714 1.925094 0.564697 -0.525197 -7.191238 -64.636894 -8.869214 -25.663249 -113.633215 -18.276806 0.000001 -0.000002 0.000001 15.357064 -11.380407 0.936544 -0.000003 -0.000006 -3.000001 -5.000188 -7.998712 0.000155 -14.463033 59.636226 17.083065 -14.405810 118.121100 0.286476 0.000000 0.000013 -0.000002 19.909221 3.422788 -0.033763 -0.000001 -0.000007 3.000000 -5.000281 7.999680 -0.000059 -9.882663 179.767505 -0.874663 -179.999991 0.000005 -1.041995 163.242095 -1.499519 -1.130467 -0.000006 0.000003 0.466442 73.178080 7.152140 1.057079 25.460053 -7.350108 0.000394 -3.091556 -179.591601 -0.366283 -0.000005 -0.000004 -1.100380 -13.375593 1.471773 0.983666 0.000001 -0.000003 -0.397125 76.170509 -6.936701 -1.383759 25.843701 7.354800 -0.050675 
43.044998 14.860987 83.670700 1.730778 -0.261971 0.514860 -1.218973 -0.157822 -0.027489 1.563853 -0.312250 -0.051415 3.208928 -0.312929 -0.047645 5.153972 1.245665 -0.246414 1.932136 0.571914 -0.522758 -7.202504 -64.643185 -8.882536 -25.717698 -113.650373 -18.348825 0.000001 -0.000002 0.000002 15.371563 -11.387757 0.939018 -0.000004 -0.000004 -3.000000 -5.000194 -7.998714 0.000155 -14.470546 59.621677 17.091512 -14.444957 118.138517 0.357670 0.000000 0.000013 -0.000003 19.955967 3.438967 -0.037199 -0.000002 -0.000007 3.000000 -5.000285 7.999680 -0.000059 -9.878421 179.756659 -0.893455 -179.999991 0.000005 -1.041995 163.220389 -1.472547 -1.131959 -0.000006 0.000004 0.466442 73.214280 7.143496 1.078289 25.460053 -7.350107 0.000393 -3.122615 -179.593595 -0.362705 -0.000005 -0.000004 -1.100380 -13.436388 1.467530 0.986693 0.000000 -0.000003 -0.399987 76.201142 -6.936017 -1.386192 25.855526 7.354801 -0.052308 
43.045898 14.865884 83.663696 1.743687 -0.258196 0.523159 -1.219135 -0.158363 -0.027140 1.562214 -0.313753 -0.051630 3.207298 -0.314424 -0.047846 5.130901 1.226965 -0.246140 1.939121 0.579110 -0.520328 -7.213590 -64.649667 -8.895682 -25.772850 -113.666594 -18.421568 0.000001 -0.000002 0.000000 15.386174 -11.395103 0.941516 -0.000003 -0.000005 -3.000000 -5.000190 -7.998714 0.000154 -14.478020 59.607006 17.099910 -14.484130 118.155962 0.428882 0.000000 0.000013 -0.000003 20.002518 3.455121 -0.040658 0.000001 -0.000007 3.000000 -5.000282 7.999680 -0.000062 -9.874390 179.745826 -0.912162 -179.999991 0.000005 -1.040998 163.198600 -1.444615 -1.132144 -0.000005 0.000004 0.466442 73.250398 7.134925 1.099420 25.460053 -7.350108 0.000394 -3.153907 -179.595617 -0.359124 -0.000005 -0.000004 -1.100380 -13.497283 1.463296 0.989709 0.000001 -0.000003 -0.402846 76.231707 -6.935381 -1.388538 25.867438 7.354799 -0.053944 
43.044399 14.857784 83.665192 1.756628 -0.254479 0.531447 -1.219324 -0.158893 -0.026795 1.560584 -0.315225 -0.051823 3.205670 -0.315888 -0.048026 5.107950 1.208244 -0.245909 1.945961 0.586257 -0.517918 -7.224224 -64.656381 -8.908325 -25.827467 -113.682768 -18.493591 0.000001 -0.000002 0.000001 15.400880 -11.402344 0.944002 -0.000006 -0.000004 -3.000001 -5.000190 -7.998715 0.000154 -14.485518 59.592444 17.108343 -14.523388 118.173447 0.500052 0.000000 0.000013 -0.000002 20.048663 3.471176 -0.044114 -0.000004 -0.000007 2.999999 -5.000285 7.999679 -0.000058 -9.870859 179.735964 -0.930827 -179.999991 0.000005 -1.040998 163.176402 -1.417639 -1.133589 -0.000006 0.000004 0.466442 73.286482 7.126511 1.120181 25.460054 -7.350107 0.000393 -3.185746 -179.597625 -0.355547 -0.000005 -0.000004 -1.100380 -13.558979 1.459067 0.992722 0.000002 -0.000003 -0.405699 76.262163 -6.934740 -1.390987 25.879466 7.354809 -0.055593 
43.043999 14.845486 83.657501 1.769626 -0.250858 0.539713 -1.219542 -0.159403 -0.026458 1.558974 -0.316646 -0.051981 3.204059 -0.317302 -0.048171 5.085158 1.189491 -0.245735 1.952585 0.593319 -0.515537 -7.234116 -64.663546 -8.920140 -25.881566 -113.698874 -18.564763 0.000001 -0.000002 0.000001 15.415571 -11.409390 0.946429 -0.000007 -0.000004 -3.000001 -5.000190 -7.998716 0.000155 -14.492888 59.577691 17.116618 -14.562324 118.191888 0.570812 0.000000 0.000014 0.000001 20.094212 3.487093 -0.047563 -0.000002 -0.000007 2.999999 -5.000282 7.999679 -0.000058 -9.868126 179.725131 -0.948977 -179.999991 0.000005 -1.040998 163.153794 -1.390666 -1.134041 -0.000005 0.000004 0.466442 73.322327 7.118333 1.140397 25.460053 -7.350108 0.000393 -3.218495 -179.599633 -0.351973 -0.000005 -0.000004 -1.100380 -13.621574 1.454862 0.995725 0.000001 -0.000003 -0.408542 76.292632 -6.934080 -1.393234 25.891792 7.354809 -0.057264 
